<mxfile host="65bd71144e">
    <diagram id="VbGlob7SwFepJWRl7idt" name="Página-1">
        <mxGraphModel dx="1165" dy="676" grid="1" gridSize="10" guides="1" tooltips="1" connect="1" arrows="1" fold="1" page="1" pageScale="1" pageWidth="1600" pageHeight="1200" background="#ffffff" math="0" shadow="0">
            <root>
                <mxCell id="0"/>
                <mxCell id="1" parent="0"/>
                <mxCell id="13" style="edgeStyle=orthogonalEdgeStyle;rounded=0;orthogonalLoop=1;jettySize=auto;html=1;entryX=0.5;entryY=0;entryDx=0;entryDy=0;entryPerimeter=0;fontColor=#000000;endArrow=none;endFill=0;strokeColor=#000000;" edge="1" parent="1" source="2" target="6">
                    <mxGeometry relative="1" as="geometry"/>
                </mxCell>
                <mxCell id="2" value="Equipo de cómputo: PC&lt;br&gt;&lt;br&gt;&lt;br&gt;&lt;br&gt;&lt;br&gt;&lt;br&gt;&lt;br&gt;&lt;span style=&quot;text-align: center&quot;&gt;&lt;u&gt;smartscheduler: SmartExport.vcf&lt;/u&gt;&lt;/span&gt;" style="verticalAlign=top;align=left;shape=cube;size=10;direction=south;fontStyle=0;html=1;boundedLbl=1;spacingLeft=5;fillColor=#FFFFFF;strokeColor=#000000;fontColor=#000000;" vertex="1" parent="1">
                    <mxGeometry x="550" y="100" width="220" height="180" as="geometry"/>
                </mxCell>
                <mxCell id="7" style="edgeStyle=orthogonalEdgeStyle;rounded=0;orthogonalLoop=1;jettySize=auto;html=1;exitX=0;exitY=0;exitDx=85;exitDy=0;exitPerimeter=0;entryX=0.468;entryY=1.007;entryDx=0;entryDy=0;entryPerimeter=0;fontColor=#000000;strokeColor=#000000;endArrow=none;endFill=0;" edge="1" parent="1" source="4" target="2">
                    <mxGeometry relative="1" as="geometry"/>
                </mxCell>
                <mxCell id="4" value="Smartphone: Celular&lt;br&gt;&lt;br&gt;&lt;span style=&quot;text-align: center&quot;&gt;&lt;br&gt;&lt;br&gt;&lt;br&gt;&lt;br&gt;&lt;br&gt;&lt;u&gt;exportarContactos: contacts.vcf&lt;/u&gt;&lt;/span&gt;" style="verticalAlign=top;align=left;shape=cube;size=10;direction=south;fontStyle=0;html=1;boundedLbl=1;spacingLeft=5;fillColor=#FFFFFF;strokeColor=#000000;fontColor=#000000;" vertex="1" parent="1">
                    <mxGeometry x="130" y="100" width="220" height="180" as="geometry"/>
                </mxCell>
                <mxCell id="6" value="&lt;br&gt;&lt;br&gt;&lt;br&gt;smartsheduler&lt;br&gt;&lt;br&gt;BD relacional" style="strokeWidth=2;html=1;shape=mxgraph.flowchart.database;whiteSpace=wrap;fontColor=#000000;fillColor=#FFFFFF;strokeColor=#000000;" vertex="1" parent="1">
                    <mxGeometry x="580" y="410" width="160" height="130" as="geometry"/>
                </mxCell>
                <mxCell id="9" value="Conecta a PC" style="text;html=1;align=center;verticalAlign=middle;resizable=0;points=[];autosize=1;strokeColor=none;fontColor=#000000;" vertex="1" parent="1">
                    <mxGeometry x="410" y="200" width="90" height="20" as="geometry"/>
                </mxCell>
                <mxCell id="10" value="&amp;lt;&amp;lt;USB&amp;gt;&amp;gt;" style="text;html=1;align=center;verticalAlign=middle;resizable=0;points=[];autosize=1;strokeColor=none;fontColor=#000000;" vertex="1" parent="1">
                    <mxGeometry x="420" y="150" width="70" height="20" as="geometry"/>
                </mxCell>
            </root>
        </mxGraphModel>
    </diagram>
</mxfile>